PathFileType	4	(X/Y/Z)	Demo_0-100.trc
DataRate	CameraRate	NumFrames	NumMarkers	Units	OrigDataRate	OrigDataStartFrame	OrigNumFrames
60	60	6	21	m	60	50	100
Frame#	Time	RHip			RKnee			RAnkle			RBigToe			RSmallToe			RHeel			LHip			LKnee			LAnkle			LBigToe			LSmallToe			LHeel			Neck			Head			Nose			RShoulder			RElbow			RWrist			LShoulder			LElbow			LWrist		
		X1	Y1	Z1	X2	Y2	Z2	X3	Y3	Z3	X4	Y4	Z4	X5	Y5	Z5	X6	Y6	Z6	X7	Y7	Z7	X8	Y8	Z8	X9	Y9	Z9	X10	Y10	Z10	X11	Y11	Z11	X12	Y12	Z12	X13	Y13	Z13	X14	Y14	Z14	X15	Y15	Z15	X16	Y16	Z16	X17	Y17	Z17	X18	Y18	Z18	X19	Y19	Z19	X20	Y20	Z20	X21	Y21	Z21
51	0.85	-0.22691024125771092	1.0012479521387838	-1.0180764298844702	-0.522342655833608	0.7541052051394305	-0.8515097089038146	-0.7911926417540034	0.45011606061421516	-0.895315056378197	-0.8249736090902148	0.40962078079865927	-0.724821989663703	-0.8307796326406254	0.3791875612483516	-0.8195547327990149	-0.80911208867196	0.4288346501264519	-0.925066512600118	-0.0635692341887201	0.882437943993466	-1.0853716252555792	-0.07707950710811852	0.5165178220887643	-0.9048265672304715	-0.015484470622602442	0.14636785184647155	-1.1461997529942392	-0.007354072139251375	0.08068579042505533	-1.000679867663018	0.02380566533350282	0.08348826361400129	-1.028484040641763	-0.00866600043063232	0.11854274594528177	-1.1953014468610177	0.2468437516463907	1.316706014019285	-0.9391822817027815	0.4338516726191519	1.4813712362057578	-0.8096393937926931	0.3318597800406158	1.348554328270441	-0.8005969016559908	0.09682788456944644	1.4115398524145664	-0.9627476633883242	-0.16326232248451683	1.5063489927667948	-0.9733276324674294	-0.07765717209319349	1.649739651310922	-0.8004211329893991	0.31612612440044874	1.183664303550355	-1.0489964465992618	0.3846764027990442	0.8829641720065536	-1.0752218207705069	0.4167680900017563	0.6418278733868903	-0.99230188072132
52	0.8666666666666667	-0.22543695874243527	1.0027437452072696	-1.0051335600579665	-0.5166833946231313	0.7527836922140825	-0.8438303432798042	-0.7788569332137396	0.44453358099085766	-0.8837869605196809	-0.8110098890694506	0.39654043570504904	-0.7306487590836039	-0.8158303792006937	0.37051116430159975	-0.8080553929691188	-0.7953405212984519	0.4187999467033515	-0.9084772558839866	-0.062358488826697374	0.8850268708728438	-1.0788442716537539	-0.07588246344050248	0.5176550784510953	-0.9073295904463131	-0.01416043367627915	0.1478630502220433	-1.1431118122514117	-0.008167630428781263	0.08157873540853355	-0.9998521640902589	0.024069148012569173	0.08531469223269761	-1.0256952069584666	-0.007067823797991986	0.11829172060133361	-1.192572439234963	0.24506285200486558	1.317461954502349	-0.9363791260419484	0.4321542427696638	1.482068989419778	-0.8030927608506901	0.3301627467800533	1.347425834917973	-0.7947594303052633	0.09607292020620063	1.4147434126377665	-0.9503684793827403	-0.1646946181336604	1.5077716781556412	-0.9579719676229806	-0.07090361216021739	1.645629116865219	-0.7853384433550751	0.31716397374679073	1.1853819214125858	-1.0398513228833448	0.3849241782618926	0.8856481725013573	-1.0708091151599044	0.41951198469133044	0.6445687193855084	-0.986683189497579
53	0.8833333333333333	-0.22481684875990826	1.0036655511139798	-0.9965022041626297	-0.510079868210356	0.7498644868989266	-0.8366501608506726	-0.7633645188450773	0.4363025168363177	-0.8737910771249454	-0.7928431771081172	0.3811777355904131	-0.7374628273576485	-0.7981538282914162	0.3605972723218596	-0.7955874581424975	-0.7785701757577467	0.40621786842465224	-0.8940651070186573	-0.062153052711336365	0.8877501315241432	-1.075194485909859	-0.07431499475571618	0.5186404199440655	-0.9100676970860831	-0.01264758012686639	0.14878630096863718	-1.1410604627330212	-0.00866504034599719	0.08230286709238033	-0.9991666312917993	0.024395418121771435	0.08686495160468558	-1.0238300443625707	-0.005257539855903705	0.11785760633051097	-1.1908959807653359	0.24243265220166924	1.3178909119673936	-0.9360342937608286	0.42960659046759225	1.4832557266761968	-0.7964958291183555	0.32792145288957203	1.34673543347794	-0.7888750787574521	0.09385657328111419	1.417550838245437	-0.9415659584956734	-0.16661437376176166	1.5085248311521642	-0.9441755973992855	-0.06666091370463015	1.6408057389131416	-0.7717744848876242	0.31917219531692387	1.1873377011806705	-1.028338877051605	0.3852567518970754	0.8890918426648559	-1.0662565015912358	0.4221476887630018	0.648040497611964	-0.9787956316997938
54	0.9	-0.22482865928400445	1.0041632772014044	-0.9911199598397674	-0.5020725654366238	0.7451395132836093	-0.8298736364914412	-0.7443556982952051	0.4253500738830299	-0.8654204509661516	-0.7691289034009736	0.36431090167233576	-0.7419791167962981	-0.7777052250222773	0.34981952022781015	-0.7828350356220157	-0.7593662858663273	0.3921607569292394	-0.8847985928204836	-0.06367235873164219	0.8908091201110666	-1.0758462652253107	-0.07281075875307995	0.5195250292166373	-0.9127558052826039	-0.011549199615785483	0.14886900036452574	-1.1409557953170815	-0.008529233060088277	0.08280244401875625	-0.9985120719744851	0.02469211207416158	0.08776240510362873	-1.0236368864811742	-0.0036308218297596427	0.1171476525352727	-1.191064536578761	0.23885948610249214	1.317615740407337	-0.9377792649862774	0.42628202440969143	1.4842884133420906	-0.7898253346756461	0.32482472918655203	1.3463491028640446	-0.782172068779041	0.09059723346533227	1.4200754259899233	-0.9348315906076385	-0.16911769886299866	1.5086511549370134	-0.9319889148671716	-0.06466599633673402	1.6355801024018466	-0.7601298400567262	0.3210839212646114	1.1895551276346772	-1.0177803653631396	0.38551653149084475	0.893160644809277	-1.0617139944807419	0.4247444464887796	0.6523025805458631	-0.9691935612173673
55	0.9166666666666666	-0.22511780558825914	1.0044807436167957	-0.9877841126272686	-0.4921359175012961	0.7386377487052336	-0.8236462147662493	-0.7213959368387285	0.4118059306879543	-0.8581418186584807	-0.7393288319277933	0.3472797906613935	-0.7403154661228406	-0.7543548071251475	0.338607006162696	-0.7694485005047818	-0.7372929468948427	0.376797470565948	-0.8806174814072774	-0.06621925891784607	0.8941708895392362	-1.0793759133764023	-0.07158701382200357	0.5203990193662912	-0.9151355815760847	-0.011191489427286325	0.14819802073096736	-1.1426695437062622	-0.007872555422815425	0.08304928301013453	-0.9979160686925066	0.024851109464662197	0.08791885018050027	-1.0249376807472856	-0.002498552250953978	0.11618855154768278	-1.193007256361212	0.23443678872073048	1.3165574691217015	-0.9400732698278035	0.42199836009394587	1.4847343542937272	-0.7833480381736763	0.32049799708517673	1.3462717425773247	-0.7739604665285064	0.08688183193786775	1.422306991863863	-0.9283199729355998	-0.17207428880788228	1.5082563738838404	-0.9209473504837914	-0.06425865308521887	1.6301263189075568	-0.750125871233223	0.32219021039623497	1.1922290424694555	-1.0099185322510185	0.38571750528143983	0.8978703964751433	-1.0569416321279252	0.42736036019221657	0.6575976397157564	-0.958459838876239
56	0.9333333333333332	-0.2253707859960046	1.0048128306037374	-0.9854570812771695	-0.4798774073594023	0.7305675769396115	-0.8184504867696385	-0.6943651659686964	0.39603397709405075	-0.8512861991003453	-0.7039456187395927	0.33080416042670985	-0.7302909775518076	-0.7279044757518565	0.32695892752463607	-0.7546815392103925	-0.7113334797222781	0.3599661998752536	-0.8787033850413108	-0.06857269693602254	0.8976272928452856	-1.083099309183026	-0.0706364005964759	0.5212872882421876	-0.9171435444037311	-0.01158265876620596	0.14707150102966923	-1.1454841027461358	-0.007067995723462101	0.08303012325575247	-0.9974876954923021	0.024793731851787074	0.08745790437803312	-1.0269570439793472	-0.002076908861376919	0.11512388179214562	-1.1960292015128728	0.22956728692303408	1.315182692488298	-0.940474473127122	0.41619908504238573	1.4845569369954774	-0.7768866745493955	0.31467130279586114	1.3466225347386505	-0.7639755621457396	0.08314156037232734	1.4241260116721053	-0.9209905994097058	-0.17513841591357554	1.507427987068401	-0.9105102569119368	-0.06485252027308594	1.6244294445384189	-0.7409951275899423	0.3223754208493595	1.1954626604333685	-1.0044151969039004	0.3860980897291353	0.9032822041687135	-1.051553718910537	0.4300159941151861	0.6640700107669846	-0.9472112116393971
